<svg width="90" height="63" viewBox="0 0 90 63" fill="none" xmlns="http://www.w3.org/2000/svg">
<rect width="57" height="25" rx="4" fill="url(#paint0_linear_60_38654)"/>
<path d="M37.968 4.248H42.96C45.104 4.248 46.688 4.96 47.712 6.384C48.752 7.808 49.272 9.888 49.272 12.624C49.272 15.36 48.752 17.44 47.712 18.864C46.688 20.288 45.104 21 42.96 21H37.968V4.248ZM42.792 18.792C44.024 18.792 44.936 18.384 45.528 17.568C46.136 16.736 46.44 15.552 46.44 14.016V11.232C46.44 9.696 46.136 8.52 45.528 7.704C44.936 6.872 44.024 6.456 42.792 6.456H40.632V18.792H42.792Z" fill="black"/>
<rect x="8" y="4.5" width="3" height="16.5" fill="black"/>
<rect x="18" y="4.5" width="3" height="16.5" fill="black"/>
<rect x="28" y="4.5" width="3" height="16.5" fill="black"/>
<g clip-path="url(#clip0_60_38654)">
<path d="M3.25063 59C5.04427 59 6.49998 57.656 6.49998 56V53H3.25063C1.45699 53 0.00128174 54.344 0.00128174 56C0.00128174 57.656 1.45699 59 3.25063 59Z" fill="#0ACF83"/>
<path d="M0.00128174 50C0.00128174 48.344 1.45699 47 3.25063 47H6.49998V53H3.25063C1.45699 53 0.00128174 51.656 0.00128174 50Z" fill="#A259FF"/>
<path d="M0.00128174 44C0.00128174 42.344 1.45699 41 3.25063 41H6.49998V47H3.25063C1.45699 47 0.00128174 45.656 0.00128174 44Z" fill="#F24E1E"/>
<path d="M6.5 41H9.74935C11.543 41 12.9987 42.344 12.9987 44C12.9987 45.656 11.543 47 9.74935 47H6.5V41Z" fill="#FF7262"/>
<path d="M12.9987 50C12.9987 51.656 11.543 53 9.74935 53C7.95571 53 6.5 51.656 6.5 50C6.5 48.344 7.95571 47 9.74935 47C11.543 47 12.9987 48.344 12.9987 50Z" fill="#1ABCFE"/>
</g>
<path d="M80.6409 58V47.68H82.8209V49.44H82.9209C83.0276 49.1733 83.1609 48.92 83.3209 48.68C83.4943 48.4267 83.7009 48.2133 83.9409 48.04C84.1809 47.8533 84.4609 47.7067 84.7809 47.6C85.1009 47.4933 85.4743 47.44 85.9009 47.44C86.9409 47.44 87.7809 47.78 88.4209 48.46C89.0609 49.14 89.3809 50.1067 89.3809 51.36V58H87.2009V51.68C87.2009 50.04 86.4876 49.22 85.0609 49.22C84.7809 49.22 84.5076 49.26 84.2409 49.34C83.9743 49.4067 83.7343 49.5133 83.5209 49.66C83.3076 49.8067 83.1343 49.9933 83.0009 50.22C82.8809 50.4467 82.8209 50.7067 82.8209 51V58H80.6409Z" fill="black"/>
<path d="M73.6088 45.8C73.0488 45.8 72.6554 45.6867 72.4288 45.46C72.2154 45.2333 72.1088 44.9533 72.1088 44.62V44.2C72.1088 43.8667 72.2154 43.5867 72.4288 43.36C72.6554 43.1333 73.0421 43.02 73.5888 43.02C74.1488 43.02 74.5354 43.1333 74.7488 43.36C74.9754 43.5867 75.0888 43.8667 75.0888 44.2V44.62C75.0888 44.9533 74.9754 45.2333 74.7488 45.46C74.5354 45.6867 74.1554 45.8 73.6088 45.8ZM68.9888 56.24H72.5088V49.44H68.9888V47.68H74.6888V56.24H77.9888V58H68.9888V56.24Z" fill="black"/>
<path d="M66.3766 59.12C66.3766 60.1867 65.9299 60.9733 65.0366 61.48C64.1432 61.9867 62.7832 62.24 60.9566 62.24C60.0632 62.24 59.3099 62.18 58.6966 62.06C58.0966 61.9533 57.6032 61.7933 57.2166 61.58C56.8432 61.3667 56.5699 61.1067 56.3966 60.8C56.2366 60.4933 56.1566 60.1467 56.1566 59.76C56.1566 59.2 56.3099 58.76 56.6166 58.44C56.9366 58.1333 57.3832 57.9067 57.9566 57.76V57.56C57.6099 57.4267 57.3299 57.24 57.1166 57C56.9166 56.76 56.8166 56.4467 56.8166 56.06C56.8166 55.5533 56.9899 55.1733 57.3366 54.92C57.6832 54.6533 58.1299 54.4533 58.6766 54.32V54.22C58.0499 53.9267 57.5632 53.5133 57.2166 52.98C56.8699 52.4467 56.6966 51.8067 56.6966 51.06C56.6966 50.5133 56.7966 50.02 56.9966 49.58C57.1966 49.1267 57.4766 48.7467 57.8366 48.44C58.2099 48.12 58.6499 47.8733 59.1566 47.7C59.6766 47.5267 60.2566 47.44 60.8966 47.44C61.6166 47.44 62.2632 47.5533 62.8366 47.78V47.44C62.8366 47.04 62.9499 46.7067 63.1766 46.44C63.4032 46.1733 63.7499 46.04 64.2166 46.04H66.0966V47.76H63.6966V48.24C64.1499 48.5467 64.4966 48.94 64.7366 49.42C64.9766 49.8867 65.0966 50.4333 65.0966 51.06C65.0966 51.6067 64.9966 52.1067 64.7966 52.56C64.5966 53 64.3099 53.38 63.9366 53.7C63.5766 54.0067 63.1366 54.2467 62.6166 54.42C62.1099 54.58 61.5366 54.66 60.8966 54.66C60.4432 54.66 60.0166 54.62 59.6166 54.54C59.3766 54.6067 59.1366 54.72 58.8966 54.88C58.6566 55.04 58.5366 55.26 58.5366 55.54C58.5366 55.86 58.6899 56.06 58.9966 56.14C59.3032 56.22 59.6832 56.26 60.1366 56.26H62.4566C63.8432 56.26 64.8432 56.5267 65.4566 57.06C66.0699 57.58 66.3766 58.2667 66.3766 59.12ZM64.3366 59.26C64.3366 58.9133 64.1966 58.6333 63.9166 58.42C63.6366 58.22 63.1299 58.12 62.3966 58.12H58.8166C58.3099 58.36 58.0566 58.7467 58.0566 59.28C58.0566 59.6667 58.2166 60 58.5366 60.28C58.8699 60.56 59.4166 60.7 60.1766 60.7H61.7966C62.6232 60.7 63.2499 60.5733 63.6766 60.32C64.1166 60.08 64.3366 59.7267 64.3366 59.26ZM60.8966 53.16C61.6032 53.16 62.1232 52.9933 62.4566 52.66C62.7899 52.3267 62.9566 51.88 62.9566 51.32V50.78C62.9566 50.22 62.7899 49.7733 62.4566 49.44C62.1232 49.1067 61.6032 48.94 60.8966 48.94C60.1899 48.94 59.6699 49.1067 59.3366 49.44C59.0032 49.7733 58.8366 50.22 58.8366 50.78V51.32C58.8366 51.88 59.0032 52.3267 59.3366 52.66C59.6699 52.9933 60.1899 53.16 60.8966 53.16Z" fill="black"/>
<path d="M51.1244 56.24H51.0244C50.9177 56.5067 50.7777 56.7667 50.6044 57.02C50.4444 57.26 50.2444 57.4733 50.0044 57.66C49.7644 57.8333 49.4844 57.9733 49.1644 58.08C48.8444 58.1867 48.4711 58.24 48.0444 58.24C47.0044 58.24 46.1644 57.9 45.5244 57.22C44.8844 56.54 44.5644 55.5733 44.5644 54.32V47.68H46.7444V54C46.7444 55.64 47.4577 56.46 48.8844 56.46C49.1644 56.46 49.4377 56.4267 49.7044 56.36C49.9711 56.28 50.2111 56.1667 50.4244 56.02C50.6377 55.8733 50.8044 55.6933 50.9244 55.48C51.0577 55.2533 51.1244 54.9867 51.1244 54.68V47.68H53.3044V58H51.1244V56.24Z" fill="black"/>
<path d="M32.4922 56.24H35.9122V44.96H32.4922V43.2H38.0922V56.24H41.5122V58H32.4922V56.24Z" fill="black"/>
<path d="M20.68 58V44.04H25.9C27.2333 44.04 28.2467 44.4133 28.94 45.16C29.6467 45.9067 30 46.9333 30 48.24C30 49.5467 29.6467 50.5733 28.94 51.32C28.2467 52.0667 27.2333 52.44 25.9 52.44H22.92V58H20.68ZM22.92 50.58H25.56C26.9467 50.58 27.64 49.94 27.64 48.66V47.8C27.64 46.5333 26.9467 45.9 25.56 45.9H22.92V50.58Z" fill="black"/>
<defs>
<linearGradient id="paint0_linear_60_38654" x1="0" y1="12.5" x2="57" y2="12.5" gradientUnits="userSpaceOnUse">
<stop stop-color="#4581FF"/>
<stop offset="1" stop-color="#0ACF83"/>
</linearGradient>
<clipPath id="clip0_60_38654">
<rect width="13" height="18" fill="white" transform="translate(0 41)"/>
</clipPath>
</defs>
</svg>
